<?xml version="1.0" encoding="UTF-8" standalone="no"?>
<!-- Created with Inkscape (http://www.inkscape.org/) -->

<svg
   version="1.1"
   id="svg2"
   width="1024"
   height="1024"
   viewBox="0 0 1024 1024"
   xmlns="http://www.w3.org/2000/svg"
   xmlns:svg="http://www.w3.org/2000/svg">
  <defs
     id="defs6">
    <clipPath
       clipPathUnits="userSpaceOnUse"
       id="clipPath16">
      <path
         d="M 3867,0 H 9410 V 12799 H 3867 V 0"
         id="path14" />
    </clipPath>
  </defs>
  <g
     id="g8"
     transform="matrix(0.08,0,0,-0.08,0,1024)">
    <g
       id="g10">
      <g
         id="g12"
         clip-path="url(#clipPath16)">
        <path
           d="M 8623,201 V 4010"
           style="fill:none;stroke:#000000;stroke-width:17;stroke-linecap:round;stroke-linejoin:round;stroke-miterlimit:10;stroke-dasharray:none;stroke-opacity:1"
           id="path18" />
        <path
           d="M 5289,201 V 4010"
           style="fill:none;stroke:#000000;stroke-width:17;stroke-linecap:round;stroke-linejoin:round;stroke-miterlimit:10;stroke-dasharray:none;stroke-opacity:1"
           id="path20" />
        <path
           d="m 8464.5,43 c 87.5371,0 158.5,70.96286 158.5,158.5"
           style="fill:none;stroke:#000000;stroke-width:17;stroke-linecap:round;stroke-linejoin:round;stroke-miterlimit:10;stroke-dasharray:none;stroke-opacity:1"
           id="path22" />
        <g
           id="g24"
           transform="rotate(180,3994.25,100.75)">
          <path
             d="M 158.5,0 C 158.5,87.53714 87.53714,158.5 0,158.5"
             style="fill:none;stroke:#000000;stroke-width:17;stroke-linecap:round;stroke-linejoin:round;stroke-miterlimit:10;stroke-dasharray:none;stroke-opacity:1"
             id="path26" />
        </g>
        <path
           d="M 7829,4010 V 201"
           style="fill:none;stroke:#000000;stroke-width:17;stroke-linecap:round;stroke-linejoin:round;stroke-miterlimit:10;stroke-dasharray:none;stroke-opacity:1"
           id="path28" />
        <path
           d="m 7988,42 h 476"
           style="fill:none;stroke:#000000;stroke-width:17;stroke-linecap:round;stroke-linejoin:round;stroke-miterlimit:10;stroke-dasharray:none;stroke-opacity:1"
           id="path30" />
        <g
           id="g32"
           transform="rotate(180,2327.25,100.75)">
          <path
             d="M 158.5,0 C 158.5,87.53714 87.53714,158.5 0,158.5"
             style="fill:none;stroke:#000000;stroke-width:17;stroke-linecap:round;stroke-linejoin:round;stroke-miterlimit:10;stroke-dasharray:none;stroke-opacity:1"
             id="path34" />
        </g>
        <path
           d="M 4495,4010 V 201"
           style="fill:none;stroke:#000000;stroke-width:17;stroke-linecap:round;stroke-linejoin:round;stroke-miterlimit:10;stroke-dasharray:none;stroke-opacity:1"
           id="path36" />
        <path
           d="m 5130.5,43 c 87.5371,0 158.5,70.96286 158.5,158.5"
           style="fill:none;stroke:#000000;stroke-width:17;stroke-linecap:round;stroke-linejoin:round;stroke-miterlimit:10;stroke-dasharray:none;stroke-opacity:1"
           id="path38" />
        <path
           d="m 4654,42 h 476"
           style="fill:none;stroke:#000000;stroke-width:17;stroke-linecap:round;stroke-linejoin:round;stroke-miterlimit:10;stroke-dasharray:none;stroke-opacity:1"
           id="path40" />
        <path
           d="m 4098,4010 h 60 63 66 69 72 75 77 80 83 84 87 89 91 93 94 96 98 98 100 101 102 103 103 103 104 104 104 104 104 103 103 102 101 100 99 97 97 94 93 91 90 87 85 82 81 77 75 73 69 67 63 60 57 54 51 47 43 40 36 33 29 25 21 17 14 10 6 2"
           style="fill:none;stroke:#000000;stroke-width:17;stroke-linecap:round;stroke-linejoin:round;stroke-miterlimit:10;stroke-dasharray:none;stroke-opacity:1"
           id="path42" />
        <path
           d="m 6427,12741 h -2 -6 -8 -11 -10 -9 -6 -2"
           style="fill:none;stroke:#000000;stroke-width:17;stroke-linecap:round;stroke-linejoin:round;stroke-miterlimit:10;stroke-dasharray:none;stroke-opacity:1"
           id="path44" />
        <path
           d="m 4019,5994 h 2 7 11 16 19 24"
           style="fill:none;stroke:#000000;stroke-width:17;stroke-linecap:round;stroke-linejoin:round;stroke-miterlimit:10;stroke-dasharray:none;stroke-opacity:1"
           id="path46" />
        <path
           d="m 4098,4010 h -3 l -4,1 h -4 l -4,1 -3,1 -4,1 -4,1 -3,1 -4,2 -3,1 -4,2 -3,2 -3,3 -3,2 -3,2 -3,3 -3,3 -2,3 -3,3 -2,3 -2,3 -2,4 -2,3 -2,4 -1,3 -1,4 -1,4 -1,4 -1,4 -1,4 v 4 4 1825 1 1 1 2 1 2 2 2 2 2 3 2 3 2 3 3 6 7 6 7 7 14"
           style="fill:none;stroke:#000000;stroke-width:17;stroke-linecap:round;stroke-linejoin:round;stroke-miterlimit:10;stroke-dasharray:none;stroke-opacity:1"
           id="path48" />
        <path
           d="m 9179,5994 h -2 -6 -10 -14 -17 -21 -25 -29 -33 -36 -40 -43 -47 -51 -54 -57 -60 -63 -67 -69 -73 -75 -77 -81 -82 -85 -87 -90 -91 -93 -94 -97 -97 -99 -100 -101 -102 -103 -103 -104 -104 -104 -104 -104 -103 -103 -103 -102 -101 -100 -98 -98 -96 -94 -93 -91 -89 -87 -84 -83 -80 -77 -75 -72 -69 -66 -63 -60 -3 -4 -4 l -4,-1 -3,-1 -4,-1 -4,-1 -3,-1 -4,-2 -3,-2 -4,-1 -3,-2 -3,-3 -3,-2 -3,-3 -3,-2 -3,-3 -2,-3 -3,-3 -2,-3 -2,-3 -2,-4 -2,-3 -2,-4 -1,-4 -1,-3 -1,-4 -1,-4 -1,-4 -1,-4 v -4 -4"
           style="fill:none;stroke:#000000;stroke-width:17;stroke-linecap:round;stroke-linejoin:round;stroke-miterlimit:10;stroke-dasharray:none;stroke-opacity:1"
           id="path50" />
        <g
           id="g52"
           transform="rotate(179.32447,3155.9793,5238.5378)">
          <path
             d="M 27.13976,-2301.3401 C 1287.5493,-2286.4758 2301.5,-1260.4972 2301.5,0"
             style="fill:none;stroke:#000000;stroke-width:17;stroke-linecap:round;stroke-linejoin:round;stroke-miterlimit:10;stroke-dasharray:none;stroke-opacity:1"
             id="path54" />
        </g>
        <g
           id="g56"
           transform="rotate(180,3213.75,5219.75)">
          <path
             d="M -2301.3401,-27.13976 C -2286.4758,-1287.5493 -1260.4972,-2301.5 0,-2301.5"
             style="fill:none;stroke:#000000;stroke-width:17;stroke-linecap:round;stroke-linejoin:round;stroke-miterlimit:10;stroke-dasharray:none;stroke-opacity:1"
             id="path58" />
        </g>
        <path
           d="m 8729,10466 53,-4472"
           style="fill:none;stroke:#000000;stroke-width:17;stroke-linecap:round;stroke-linejoin:round;stroke-miterlimit:10;stroke-dasharray:none;stroke-opacity:1"
           id="path60" />
        <path
           d="M 4072,10466 4019,5995"
           style="fill:none;stroke:#000000;stroke-width:17;stroke-linecap:round;stroke-linejoin:round;stroke-miterlimit:10;stroke-dasharray:none;stroke-opacity:1"
           id="path62" />
        <path
           d="m 9179.5,4011 c 43.9063,0 79.5,35.5933 79.5,79.5"
           style="fill:none;stroke:#000000;stroke-width:17;stroke-linecap:round;stroke-linejoin:round;stroke-miterlimit:10;stroke-dasharray:none;stroke-opacity:1"
           id="path64" />
        <g
           id="g66"
           transform="rotate(180,4589.75,2957.75)">
          <path
             d="m -79.5,0 c 0,-43.90664 35.59336,-79.5 79.5,-79.5"
             style="fill:none;stroke:#000000;stroke-width:17;stroke-linecap:round;stroke-linejoin:round;stroke-miterlimit:10;stroke-dasharray:none;stroke-opacity:1"
             id="path68" />
        </g>
        <path
           d="m 4019,5915 v 1 1 1 2 1 2 2 2 2 2 3 2 3 2 3 3 6 7 6 7 7 14"
           style="fill:none;stroke:#000000;stroke-width:17;stroke-linecap:round;stroke-linejoin:round;stroke-miterlimit:10;stroke-dasharray:none;stroke-opacity:1"
           id="path70" />
        <path
           d="M 9258,4090 V 5915"
           style="fill:none;stroke:#000000;stroke-width:17;stroke-linecap:round;stroke-linejoin:round;stroke-miterlimit:10;stroke-dasharray:none;stroke-opacity:1"
           id="path72" />
      </g>
    </g>
  </g>
</svg>
