<svg xmlns="http://www.w3.org/2000/svg" xmlns:xlink="http://www.w3.org/1999/xlink" xmlns:inkscape="http://www.inkscape.org/namespaces/inkscape" version="1.1" width="768" height="768" viewBox="0 0 768 768">
<defs>
<clipPath id="clip_0">
<path transform="matrix(.06,0,0,-.06,0,768)" d="M0 4589H12799V7964H0V4589"/>
</clipPath>
</defs>
<g clip-path="url(#clip_0)">
<g inkscape:groupmode="layer" inkscape:label="Visible">
<path transform="matrix(.06,0,0,-.06,0,768)" stroke-width="17" stroke-linecap="round" stroke-linejoin="round" fill="none" stroke="#000000" d="M11330.5 5778C11158.037 5778 11006.787 5662.8767 10960.853 5496.6428"/>
<path transform="matrix(0,-.06,-.06,-0,679.82998,338.43003)" stroke-width="17" stroke-linecap="round" stroke-linejoin="round" fill="none" stroke="#000000" d="M-102.14259 369.6473C-268.37626 323.7129-383.5 172.46335-383.5 0"/>
<path transform="matrix(.06,0,0,-.06,0,768)" stroke-width="17" stroke-linecap="round" stroke-linejoin="round" fill="none" stroke="#000000" d="M12741 6468.5C12741 6638.3278 12603.327 6776 12433.5 6776"/>
<path transform="matrix(.06,0,0,-.06,0,768)" stroke-width="17" stroke-linecap="round" stroke-linejoin="round" fill="none" stroke="#000000" d="M12433 6776H12431 12425 12415 12402 12384 12363 12338 12310 12278 12242 12203 12161 12116 12069 12018 11965 11909 11851 11791 11729 11666 11601 11534 11467 11399 11330"/>
<path transform="matrix(.06,0,0,-.06,0,768)" stroke-width="17" stroke-linecap="round" stroke-linejoin="round" fill="none" stroke="#000000" d="M12740 6085V6468"/>
<path transform="matrix(.06,0,0,-.06,0,768)" stroke-width="17" stroke-linecap="round" stroke-linejoin="round" fill="none" stroke="#000000" d="M11330 5777H11399 11467 11534 11601 11666 11729 11791 11851 11909 11965 12018 12069 12116 12161 12203 12242 12278 12310 12338 12363 12384 12402 12415 12425 12431 12433"/>
<path transform="matrix(.06,0,0,-.06,0,768)" stroke-width="17" stroke-linecap="round" stroke-linejoin="round" fill="none" stroke="#000000" d="M12433.5 5778C12603.327 5778 12741 5915.6726 12741 6085.5"/>
<path transform="matrix(.06,0,0,-.06,0,768)" stroke-width="17" stroke-linecap="round" stroke-linejoin="round" fill="none" stroke="#000000" d="M9969.5 4742C10454.247 4742 10873.19 5080.474 10975.041 5554.4"/>
<path transform="matrix(.06,0,0,-.06,0,768)" stroke-width="17" stroke-linecap="round" stroke-linejoin="round" fill="none" stroke="#000000" d="M1452.5 6776C1624.9634 6776 1776.2129 6891.1237 1822.1473 7057.3576"/>
<path transform="matrix(0,.06,.06,0,87.15,444.33003)" stroke-width="17" stroke-linecap="round" stroke-linejoin="round" fill="none" stroke="#000000" d="M-102.14259 369.6473C-268.37626 323.7129-383.5 172.46335-383.5 0"/>
<path transform="matrix(.06,0,0,-.06,0,768)" stroke-width="17" stroke-linecap="round" stroke-linejoin="round" fill="none" stroke="#000000" d="M43 6085.5C43 5915.6726 180.67243 5778 350.5 5778"/>
<path transform="matrix(.06,0,0,-.06,0,768)" stroke-width="17" stroke-linecap="round" stroke-linejoin="round" fill="none" stroke="#000000" d="M350 5777H352 358 367 381 398 420 444 473 505 540 579 621 666 714 765 818 874 932 992 1053 1117 1182 1248 1316 1384 1452"/>
<path transform="matrix(.06,0,0,-.06,0,768)" stroke-width="17" stroke-linecap="round" stroke-linejoin="round" fill="none" stroke="#000000" d="M43 6468V6085"/>
<path transform="matrix(.06,0,0,-.06,0,768)" stroke-width="17" stroke-linecap="round" stroke-linejoin="round" fill="none" stroke="#000000" d="M1452 6776H1384 1316 1248 1182 1117 1053 992 932 874 818 765 714 666 621 579 540 505 473 444 420 398 381 367 358 352 350"/>
<path transform="matrix(.06,0,0,-.06,0,768)" stroke-width="17" stroke-linecap="round" stroke-linejoin="round" fill="none" stroke="#000000" d="M350.5 6776C180.67243 6776 43 6638.3278 43 6468.5"/>
<path transform="matrix(.06,0,0,-.06,0,768)" stroke-width="17" stroke-linecap="round" stroke-linejoin="round" fill="none" stroke="#000000" d="M2814.5 7812C2329.7532 7812 1910.8098 7473.526 1808.9589 6999.6"/>
<path transform="matrix(.06,0,0,-.06,0,768)" stroke-width="17" stroke-linecap="round" stroke-linejoin="round" fill="none" stroke="#000000" d="M8310 5123V5125 5131 5140 5153 5169 5188 5211 5236 5264 5294 5326 5360 5396 5432 5470 5507 7052 7090 7127 7163 7199 7233 7265 7295 7323 7349 7371 7390 7407 7419 7428 7434 7436"/>
<path transform="matrix(.06,0,0,-.06,0,768)" stroke-width="17" stroke-linecap="round" stroke-linejoin="round" fill="none" stroke="#000000" d="M6775 5123V5125 5131 5140 5153 5169 5188 5211 5236 5264 5294 5326 5360 5396 5432 5470 5507 7052 7090 7127 7163 7199 7233 7265 7295 7323 7349 7371 7390 7407 7419 7428 7434 7436"/>
<path transform="matrix(.06,0,0,-.06,0,768)" stroke-width="17" stroke-linecap="round" stroke-linejoin="round" fill="none" stroke="#000000" d="M6007 7436V7434 7428 7419 7407 7390 7371 7349 7323 7295 7265 7233 7199 7163 7127 7090 7052 5507 5470 5432 5396 5360 5326 5294 5264 5236 5211 5188 5169 5153 5140 5131 5125 5123"/>
<path transform="matrix(.06,0,0,-.06,0,768)" stroke-width="17" stroke-linecap="round" stroke-linejoin="round" fill="none" stroke="#000000" d="M4472 7436V7434 7428 7419 7407 7390 7371 7349 7323 7295 7265 7233 7199 7163 7127 7090 7052 5507 5470 5432 5396 5360 5326 5294 5264 5236 5211 5188 5169 5153 5140 5131 5125 5123"/>
<path transform="matrix(.06,0,0,-.06,0,768)" stroke-width="17" stroke-linecap="round" stroke-linejoin="round" fill="none" stroke="#000000" d="M4472 5123H5240V5125 5131 5140 5153 5169 5188 5211 5236 5264 5294 5326 5360 5396 5432 5470 5507 7052 7090 7127 7163 7199 7233 7265 7295 7323 7349 7371 7390 7407 7419 7428 7434 7436"/>
<path transform="matrix(.06,0,0,-.06,0,768)" stroke-width="17" stroke-linecap="round" stroke-linejoin="round" fill="none" stroke="#000000" d="M7543 5123H8310"/>
<path transform="matrix(.06,0,0,-.06,0,768)" stroke-width="17" stroke-linecap="round" stroke-linejoin="round" fill="none" stroke="#000000" d="M6007 5123H6775"/>
<path transform="matrix(.06,0,0,-.06,0,768)" stroke-width="17" stroke-linecap="round" stroke-linejoin="round" fill="none" stroke="#000000" d="M7543 7052V5507 5470 5432 5396 5360 5326 5294 5264 5236 5211 5188 5169 5153 5140 5131 5125 5123"/>
<path transform="matrix(.06,0,0,-.06,0,768)" stroke-width="17" stroke-linecap="round" stroke-linejoin="round" fill="none" stroke="#000000" d="M5240 7436H4472"/>
<path transform="matrix(.06,0,0,-.06,0,768)" stroke-width="17" stroke-linecap="round" stroke-linejoin="round" fill="none" stroke="#000000" d="M6775 7436H6007"/>
<path transform="matrix(.06,0,0,-.06,0,768)" stroke-width="17" stroke-linecap="round" stroke-linejoin="round" fill="none" stroke="#000000" d="M8310 7436H7543V7434 7428 7419 7407 7390 7371 7349 7323 7295 7265 7233 7199 7163 7127 7090 7052"/>
<path transform="matrix(.06,0,0,-.06,0,768)" stroke-width="17" stroke-linecap="round" stroke-linejoin="round" fill="none" stroke="#000000" d="M6007 7428H5240"/>
<path transform="matrix(.06,0,0,-.06,0,768)" stroke-width="17" stroke-linecap="round" stroke-linejoin="round" fill="none" stroke="#000000" d="M7543 7428H6775"/>
<path transform="matrix(.06,0,0,-.06,0,768)" stroke-width="17" stroke-linecap="round" stroke-linejoin="round" fill="none" stroke="#000000" d="M5240 5125H6007"/>
<path transform="matrix(.06,0,0,-.06,0,768)" stroke-width="17" stroke-linecap="round" stroke-linejoin="round" fill="none" stroke="#000000" d="M6775 5125H7543"/>
<path transform="matrix(0,-.06,-.06,-0,262.16999,299.25)" stroke-width="17" stroke-linecap="round" stroke-linejoin="round" fill="none" stroke="#000000" d="M-191.6757 332.16365C-310.37287 263.6692-383.5 137.04199-383.5 0"/>
<path transform="matrix(.0519684,.0299886,.0299886,-.0519684,262.16999,483.51)" stroke-width="17" stroke-linecap="round" stroke-linejoin="round" fill="none" stroke="#000000" d="M-191.6757 332.16365C-310.37287 263.6692-383.5 137.04199-383.5 0"/>
<path transform="matrix(0,.06,.06,0,222.33,322.29)" stroke-width="17" stroke-linecap="round" stroke-linejoin="round" fill="none" stroke="#000000" d="M-191.6757 332.16365C-310.37287 263.6692-383.5 137.04199-383.5 0"/>
<path transform="matrix(.06,0,0,-.06,0,768)" stroke-width="17" stroke-linecap="round" stroke-linejoin="round" fill="none" stroke="#000000" d="M4472 7428H4349"/>
<path transform="matrix(.06,0,0,-.06,0,768)" stroke-width="17" stroke-linecap="round" stroke-linejoin="round" fill="none" stroke="#000000" d="M4349 5125H4472"/>
<path transform="matrix(-.0519684,-.0299886,-.0299886,.0519684,504.81,299.25)" stroke-width="17" stroke-linecap="round" stroke-linejoin="round" fill="none" stroke="#000000" d="M-191.6757 332.16365C-310.37287 263.6692-383.5 137.04199-383.5 0"/>
<path transform="matrix(0,.06,.06,0,504.81,483.51)" stroke-width="17" stroke-linecap="round" stroke-linejoin="round" fill="none" stroke="#000000" d="M-191.6757 332.16365C-310.37287 263.6692-383.5 137.04199-383.5 0"/>
<path transform="matrix(.06,0,0,-.06,0,768)" stroke-width="17" stroke-linecap="round" stroke-linejoin="round" fill="none" stroke="#000000" d="M8310 5125H8433"/>
<path transform="matrix(.06,0,0,-.06,0,768)" stroke-width="17" stroke-linecap="round" stroke-linejoin="round" fill="none" stroke="#000000" d="M9078.5 7812C8941.458 7812 8814.831 7738.873 8746.336 7620.176"/>
<path transform="matrix(.06,0,0,-.06,0,768)" stroke-width="17" stroke-linecap="round" stroke-linejoin="round" fill="none" stroke="#000000" d="M8746.336 4933.824C8814.831 4815.127 8941.458 4742 9078.5 4742"/>
<path transform="matrix(.06,0,0,-.06,0,768)" stroke-width="17" stroke-linecap="round" stroke-linejoin="round" fill="none" stroke="#000000" d="M8433 7428H8310"/>
<path transform="matrix(.06,0,0,-.06,0,768)" stroke-width="17" stroke-linecap="round" stroke-linejoin="round" fill="none" stroke="#000000" d="M9969 7812H9078"/>
<path transform="matrix(.06,0,0,-.06,0,768)" stroke-width="17" stroke-linecap="round" stroke-linejoin="round" fill="none" stroke="#000000" d="M3705.5 4742C3842.542 4742 3969.1693 4815.127 4037.6636 4933.824"/>
<path transform="matrix(.06,0,0,-.06,0,768)" stroke-width="17" stroke-linecap="round" stroke-linejoin="round" fill="none" stroke="#000000" d="M2814 4741H3705"/>
<path transform="matrix(.06,0,0,-.06,0,768)" stroke-width="17" stroke-linecap="round" stroke-linejoin="round" fill="none" stroke="#000000" d="M3705 7812H2814"/>
<path transform="matrix(.06,0,0,-.06,0,768)" stroke-width="17" stroke-linecap="round" stroke-linejoin="round" fill="none" stroke="#000000" d="M1808.9589 5554.4C1910.8098 5080.474 2329.7532 4742 2814.5 4742"/>
<path transform="matrix(.06,0,0,-.06,0,768)" stroke-width="17" stroke-linecap="round" stroke-linejoin="round" fill="none" stroke="#000000" d="M10975.041 6999.6C10873.19 7473.526 10454.247 7812 9969.5 7812"/>
<path transform="matrix(.06,0,0,-.06,0,768)" stroke-width="17" stroke-linecap="round" stroke-linejoin="round" fill="none" stroke="#000000" d="M9078 4741H9969"/>
</g>
</g>
</svg>
