<?xml version="1.0" encoding="UTF-8" standalone="no"?>
<!-- Created with Inkscape (http://www.inkscape.org/) -->

<svg
   version="1.1"
   id="svg2"
   width="1024"
   height="1024"
   viewBox="0 0 1024 1024"
   xmlns="http://www.w3.org/2000/svg"
   xmlns:svg="http://www.w3.org/2000/svg">
  <defs
     id="defs6">
    <clipPath
       clipPathUnits="userSpaceOnUse"
       id="clipPath16">
      <path
         d="M 886,0 H 11917 V 12799 H 886 V 0"
         id="path14" />
    </clipPath>
  </defs>
  <g
     id="g8"
     transform="matrix(0.08,0,0,-0.08,0,1024)">
    <g
       id="g10">
      <g
         id="g12"
         clip-path="url(#clipPath16)">
        <path
           d="m 1038,4535 v 2994 43 43 43 41 40 39 4 3 4 l 1,4 v 4 4 3 l 1,4 v 4 l 1,3 1,4 v 4 l 1,3 1,4 v 4 l 1,3 1,4 1,3 1,4 1,3 1,4 1,3 1,3 2,4 1,3 1,3 2,4 1,3 1,3 2,3 1,3 2,3 1,3 2,3 2,3 1,3 2,3 2,3 1,3 2,2 2,3 2,3 1,2 2,3 2,2 2,3 2,2 2,3 2,2 1,2 2,3 2,2 2,2 2,2 2,2 2,2 2,2 2,2 2,2 2,2 3,2 2,2 2,2 2,2 2,2 3,2 2,2 2,2 2,1 3,2 2,2 2,1 3,2 2,2 3,1 2,2 2,1 3,2 2,1 3,2 2,1 3,2 2,1 3,1 2,2 3,1 2,1 3,1 3,2 2,1 3,1 2,1 3,1 2,1 3,1 3,1 2,1 3,1 3,1 h 2 l 3,1 3,1 2,1 h 3 l 3,1 2,1 h 3 l 2,1 h 3 l 3,1 h 2 l 3,1 h 3 l 2,1 h 3 3 l 2,1 h 3 2 l 3,1 h 3 2 3 2 3 2 3 3 10227 3 3 2 3 2 3 2 3 l 3,-1 h 2 3 l 2,-1 h 3 3 l 2,-1 h 3 l 3,-1 h 2 l 3,-1 h 3 l 2,-1 h 3 l 2,-1 3,-1 h 3 l 2,-1 3,-1 3,-1 h 2 l 3,-1 3,-1 2,-1 3,-1 3,-1 2,-1 3,-1 2,-1 3,-1 2,-1 3,-2 3,-1 2,-1 3,-1 2,-2 3,-1 2,-1 3,-2 2,-1 3,-2 2,-1 3,-2 2,-1 2,-2 3,-1 2,-2 3,-2 2,-1 2,-2 3,-2 2,-1 2,-2 2,-2 3,-2 2,-2 2,-2 2,-2 2,-2 3,-2 2,-2 2,-2 2,-2 2,-2 2,-2 2,-2 2,-2 2,-2 2,-2 2,-3 1,-2 2,-2 2,-3 2,-2 2,-3 2,-2 2,-3 1,-2 2,-3 2,-3 2,-2 1,-3 2,-3 2,-3 1,-3 2,-3 2,-3 1,-3 2,-3 1,-3 2,-3 1,-3 1,-3 2,-4 1,-3 1,-3 2,-4 1,-3 1,-3 1,-4 1,-3 1,-4 1,-3 1,-4 1,-3 v -4 l 1,-4 1,-3 v -4 l 1,-4 1,-3 v -4 l 1,-4 v -3 -4 -4 l 1,-4 v -4 -3 -4 -39 -40 -41 -43 -43 -43"
           style="fill:none;stroke:#000000;stroke-width:17;stroke-linecap:round;stroke-linejoin:round;stroke-miterlimit:10;stroke-dasharray:none;stroke-opacity:1"
           id="path18" />
        <path
           d="M 2922,295.5 C 2922,157.70494 3033.7048,46 3171.5,46"
           style="fill:none;stroke:#000000;stroke-width:17;stroke-linecap:round;stroke-linejoin:round;stroke-miterlimit:10;stroke-dasharray:none;stroke-opacity:1"
           id="path20" />
        <path
           d="M 3296,46 H 3171"
           style="fill:none;stroke:#000000;stroke-width:17;stroke-linecap:round;stroke-linejoin:round;stroke-miterlimit:10;stroke-dasharray:none;stroke-opacity:1"
           id="path22" />
        <path
           d="M 3296.5,46 C 3434.2952,46 3546,157.70494 3546,295.5"
           style="fill:none;stroke:#000000;stroke-width:17;stroke-linecap:round;stroke-linejoin:round;stroke-miterlimit:10;stroke-dasharray:none;stroke-opacity:1"
           id="path24" />
        <path
           d="M 3545,2797 V 295"
           style="fill:none;stroke:#000000;stroke-width:17;stroke-linecap:round;stroke-linejoin:round;stroke-miterlimit:10;stroke-dasharray:none;stroke-opacity:1"
           id="path26" />
        <g
           id="g28"
           transform="rotate(174.66608,1667.5116,1674.8821)">
          <path
             d="M -173.36964,179.42468 C -222.02394,132.41231 -249.5,67.65652 -249.5,0"
             style="fill:none;stroke:#000000;stroke-width:17;stroke-linecap:round;stroke-linejoin:round;stroke-miterlimit:10;stroke-dasharray:none;stroke-opacity:1"
             id="path30" />
        </g>
        <g
           id="g32"
           transform="matrix(0.78062,-0.62501,0.62501,0.78062,2984.5,3187.5)">
          <path
             d="M -194.76404,-155.93979 C -147.41408,-215.07846 -75.75883,-249.5 0,-249.5"
             style="fill:none;stroke:#000000;stroke-width:17;stroke-linecap:round;stroke-linejoin:round;stroke-miterlimit:10;stroke-dasharray:none;stroke-opacity:1"
             id="path34" />
        </g>
        <path
           d="M 2734,3288 V 3187"
           style="fill:none;stroke:#000000;stroke-width:17;stroke-linecap:round;stroke-linejoin:round;stroke-miterlimit:10;stroke-dasharray:none;stroke-opacity:1"
           id="path36" />
        <g
           id="g38"
           transform="matrix(-0.78062,-0.62501,0.62501,-0.78062,3795.5,2797.5)">
          <path
             d="m 0,-249.5 c 75.75883,0 147.41408,34.42154 194.76404,93.56021"
             style="fill:none;stroke:#000000;stroke-width:17;stroke-linecap:round;stroke-linejoin:round;stroke-miterlimit:10;stroke-dasharray:none;stroke-opacity:1"
             id="path40" />
        </g>
        <path
           d="m 2922,2797.5 c 0,75.7588 -34.4216,147.4141 -93.5603,194.7642"
           style="fill:none;stroke:#000000;stroke-width:17;stroke-linecap:round;stroke-linejoin:round;stroke-miterlimit:10;stroke-dasharray:none;stroke-opacity:1"
           id="path42" />
        <path
           d="M 2921,2797 V 295"
           style="fill:none;stroke:#000000;stroke-width:17;stroke-linecap:round;stroke-linejoin:round;stroke-miterlimit:10;stroke-dasharray:none;stroke-opacity:1"
           id="path44" />
        <path
           d="M 6090,295.5 C 6090,157.70494 6201.7051,46 6339.5,46"
           style="fill:none;stroke:#000000;stroke-width:17;stroke-linecap:round;stroke-linejoin:round;stroke-miterlimit:10;stroke-dasharray:none;stroke-opacity:1"
           id="path46" />
        <path
           d="M 6464,46 H 6339"
           style="fill:none;stroke:#000000;stroke-width:17;stroke-linecap:round;stroke-linejoin:round;stroke-miterlimit:10;stroke-dasharray:none;stroke-opacity:1"
           id="path48" />
        <path
           d="M 6464.5,46 C 6602.2949,46 6714,157.70494 6714,295.5"
           style="fill:none;stroke:#000000;stroke-width:17;stroke-linecap:round;stroke-linejoin:round;stroke-miterlimit:10;stroke-dasharray:none;stroke-opacity:1"
           id="path50" />
        <path
           d="M 6713,2797 V 295"
           style="fill:none;stroke:#000000;stroke-width:17;stroke-linecap:round;stroke-linejoin:round;stroke-miterlimit:10;stroke-dasharray:none;stroke-opacity:1"
           id="path52" />
        <path
           d="M 6807.4399,2992.7358 C 6866.5786,3040.0859 6901,3111.7412 6901,3187.5"
           style="fill:none;stroke:#000000;stroke-width:17;stroke-linecap:round;stroke-linejoin:round;stroke-miterlimit:10;stroke-dasharray:none;stroke-opacity:1"
           id="path54" />
        <path
           d="M 6900,3288 V 3187"
           style="fill:none;stroke:#000000;stroke-width:17;stroke-linecap:round;stroke-linejoin:round;stroke-miterlimit:10;stroke-dasharray:none;stroke-opacity:1"
           id="path56" />
        <g
           id="g58"
           transform="matrix(0.78062,-0.62501,0.62501,0.78062,6152.5,3187.5)">
          <path
             d="M -194.76404,-155.93979 C -147.41408,-215.07846 -75.75883,-249.5 0,-249.5"
             style="fill:none;stroke:#000000;stroke-width:17;stroke-linecap:round;stroke-linejoin:round;stroke-miterlimit:10;stroke-dasharray:none;stroke-opacity:1"
             id="path60" />
        </g>
        <path
           d="M 5903,3288 V 3187"
           style="fill:none;stroke:#000000;stroke-width:17;stroke-linecap:round;stroke-linejoin:round;stroke-miterlimit:10;stroke-dasharray:none;stroke-opacity:1"
           id="path62" />
        <g
           id="g64"
           transform="matrix(-0.78062,-0.62501,0.62501,-0.78062,6963.5,2797.5)">
          <path
             d="m 0,-249.5 c 75.75883,0 147.41408,34.42154 194.76404,93.56021"
             style="fill:none;stroke:#000000;stroke-width:17;stroke-linecap:round;stroke-linejoin:round;stroke-miterlimit:10;stroke-dasharray:none;stroke-opacity:1"
             id="path66" />
        </g>
        <path
           d="m 6090,2797.5 c 0,75.7588 -34.4214,147.4141 -93.5601,194.7642"
           style="fill:none;stroke:#000000;stroke-width:17;stroke-linecap:round;stroke-linejoin:round;stroke-miterlimit:10;stroke-dasharray:none;stroke-opacity:1"
           id="path68" />
        <path
           d="M 6090,2797 V 295"
           style="fill:none;stroke:#000000;stroke-width:17;stroke-linecap:round;stroke-linejoin:round;stroke-miterlimit:10;stroke-dasharray:none;stroke-opacity:1"
           id="path70" />
        <path
           d="M 9258,295.5 C 9258,157.70494 9369.7051,46 9507.5,46"
           style="fill:none;stroke:#000000;stroke-width:17;stroke-linecap:round;stroke-linejoin:round;stroke-miterlimit:10;stroke-dasharray:none;stroke-opacity:1"
           id="path72" />
        <path
           d="M 9632,46 H 9507"
           style="fill:none;stroke:#000000;stroke-width:17;stroke-linecap:round;stroke-linejoin:round;stroke-miterlimit:10;stroke-dasharray:none;stroke-opacity:1"
           id="path74" />
        <path
           d="M 9632.5,46 C 9770.2949,46 9882,157.70494 9882,295.5"
           style="fill:none;stroke:#000000;stroke-width:17;stroke-linecap:round;stroke-linejoin:round;stroke-miterlimit:10;stroke-dasharray:none;stroke-opacity:1"
           id="path76" />
        <path
           d="M 9882,2797 V 295"
           style="fill:none;stroke:#000000;stroke-width:17;stroke-linecap:round;stroke-linejoin:round;stroke-miterlimit:10;stroke-dasharray:none;stroke-opacity:1"
           id="path78" />
        <path
           d="M 9975.4395,2992.7358 C 10034.578,3040.0859 10069,3111.7412 10069,3187.5"
           style="fill:none;stroke:#000000;stroke-width:17;stroke-linecap:round;stroke-linejoin:round;stroke-miterlimit:10;stroke-dasharray:none;stroke-opacity:1"
           id="path80" />
        <path
           d="M 10069,3288 V 3187"
           style="fill:none;stroke:#000000;stroke-width:17;stroke-linecap:round;stroke-linejoin:round;stroke-miterlimit:10;stroke-dasharray:none;stroke-opacity:1"
           id="path82" />
        <g
           id="g84"
           transform="matrix(0.78062,-0.62501,0.62501,0.78062,9320.5,3187.5)">
          <path
             d="M -179.42468,-173.36964 C -132.41231,-222.02394 -67.65652,-249.5 0,-249.5"
             style="fill:none;stroke:#000000;stroke-width:17;stroke-linecap:round;stroke-linejoin:round;stroke-miterlimit:10;stroke-dasharray:none;stroke-opacity:1"
             id="path86" />
        </g>
        <g
           id="g88"
           transform="matrix(-0.78062,-0.62501,0.62501,-0.78062,10131.5,2797.5)">
          <path
             d="m 0,-249.5 c 75.75883,0 147.41408,34.42154 194.76404,93.56021"
             style="fill:none;stroke:#000000;stroke-width:17;stroke-linecap:round;stroke-linejoin:round;stroke-miterlimit:10;stroke-dasharray:none;stroke-opacity:1"
             id="path90" />
        </g>
        <path
           d="m 9258,2797.5 c 0,75.7588 -34.4219,147.4141 -93.5605,194.7642"
           style="fill:none;stroke:#000000;stroke-width:17;stroke-linecap:round;stroke-linejoin:round;stroke-miterlimit:10;stroke-dasharray:none;stroke-opacity:1"
           id="path92" />
        <path
           d="M 9258,2797 V 295"
           style="fill:none;stroke:#000000;stroke-width:17;stroke-linecap:round;stroke-linejoin:round;stroke-miterlimit:10;stroke-dasharray:none;stroke-opacity:1"
           id="path94" />
        <path
           d="M 11640,3288 H 10048"
           style="fill:none;stroke:#000000;stroke-width:17;stroke-linecap:round;stroke-linejoin:round;stroke-miterlimit:10;stroke-dasharray:none;stroke-opacity:1"
           id="path96" />
        <path
           d="M 8867,3288 H 3936"
           style="fill:none;stroke:#000000;stroke-width:17;stroke-linecap:round;stroke-linejoin:round;stroke-miterlimit:10;stroke-dasharray:none;stroke-opacity:1"
           id="path98" />
        <path
           d="M 2755,3288 H 1163"
           style="fill:none;stroke:#000000;stroke-width:17;stroke-linecap:round;stroke-linejoin:round;stroke-miterlimit:10;stroke-dasharray:none;stroke-opacity:1"
           id="path100" />
        <path
           d="m 10373,4535 h 1392 v 2994"
           style="fill:none;stroke:#000000;stroke-width:17;stroke-linecap:round;stroke-linejoin:round;stroke-miterlimit:10;stroke-dasharray:none;stroke-opacity:1"
           id="path102" />
        <path
           d="M 1038,4535 H 2430"
           style="fill:none;stroke:#000000;stroke-width:17;stroke-linecap:round;stroke-linejoin:round;stroke-miterlimit:10;stroke-dasharray:none;stroke-opacity:1"
           id="path104" />
        <g
           id="g106"
           transform="matrix(0.98482,0.17361,-0.17361,0.98482,2430.5,4411.5)">
          <path
             d="m 124.5,0 c 0,60.42106 -43.38245,112.12001 -102.88603,122.60949"
             style="fill:none;stroke:#000000;stroke-width:17;stroke-linecap:round;stroke-linejoin:round;stroke-miterlimit:10;stroke-dasharray:none;stroke-opacity:1"
             id="path108" />
        </g>
        <path
           d="M 2553,4432 2733,3413"
           style="fill:none;stroke:#000000;stroke-width:17;stroke-linecap:round;stroke-linejoin:round;stroke-miterlimit:10;stroke-dasharray:none;stroke-opacity:1"
           id="path110" />
        <path
           d="m 3958,3413 180,1019"
           style="fill:none;stroke:#000000;stroke-width:17;stroke-linecap:round;stroke-linejoin:round;stroke-miterlimit:10;stroke-dasharray:none;stroke-opacity:1"
           id="path112" />
        <g
           id="g114"
           transform="rotate(180,2130.75,2205.75)">
          <path
             d="m 0,-124.5 c 60.42106,0 112.12001,43.38245 122.60949,102.88603"
             style="fill:none;stroke:#000000;stroke-width:17;stroke-linecap:round;stroke-linejoin:round;stroke-miterlimit:10;stroke-dasharray:none;stroke-opacity:1"
             id="path116" />
        </g>
        <path
           d="M 4261,4535 H 8542"
           style="fill:none;stroke:#000000;stroke-width:17;stroke-linecap:round;stroke-linejoin:round;stroke-miterlimit:10;stroke-dasharray:none;stroke-opacity:1"
           id="path118" />
        <g
           id="g120"
           transform="matrix(0.98482,0.17361,-0.17361,0.98482,8542.5,4411.5)">
          <path
             d="m 124.5,0 c 0,60.42106 -43.38245,112.12001 -102.88603,122.60949"
             style="fill:none;stroke:#000000;stroke-width:17;stroke-linecap:round;stroke-linejoin:round;stroke-miterlimit:10;stroke-dasharray:none;stroke-opacity:1"
             id="path122" />
        </g>
        <path
           d="M 8665,4432 8845,3413"
           style="fill:none;stroke:#000000;stroke-width:17;stroke-linecap:round;stroke-linejoin:round;stroke-miterlimit:10;stroke-dasharray:none;stroke-opacity:1"
           id="path124" />
        <path
           d="m 10070,3413 180,1019"
           style="fill:none;stroke:#000000;stroke-width:17;stroke-linecap:round;stroke-linejoin:round;stroke-miterlimit:10;stroke-dasharray:none;stroke-opacity:1"
           id="path126" />
        <g
           id="g128"
           transform="rotate(180,5186.75,2205.75)">
          <path
             d="m 0,-124.5 c 60.42106,0 112.12001,43.38245 122.60949,102.88603"
             style="fill:none;stroke:#000000;stroke-width:17;stroke-linecap:round;stroke-linejoin:round;stroke-miterlimit:10;stroke-dasharray:none;stroke-opacity:1"
             id="path130" />
        </g>
        <path
           d="M 11640,4535 V 3288"
           style="fill:none;stroke:#000000;stroke-width:17;stroke-linecap:round;stroke-linejoin:round;stroke-miterlimit:10;stroke-dasharray:none;stroke-opacity:1"
           id="path132" />
        <path
           d="m 3920,3197 3,16 3,18 4,22 4,23 5,25 4,27 5,27 5,29 5,29"
           style="fill:none;stroke:#000000;stroke-width:17;stroke-linecap:round;stroke-linejoin:round;stroke-miterlimit:10;stroke-dasharray:none;stroke-opacity:1"
           id="path134" />
        <path
           d="m 10032,3197 3,16 3,18 4,22 4,23 4,25 5,27 5,27 5,29 5,29"
           style="fill:none;stroke:#000000;stroke-width:17;stroke-linecap:round;stroke-linejoin:round;stroke-miterlimit:10;stroke-dasharray:none;stroke-opacity:1"
           id="path136" />
        <path
           d="m 8845,3413 5,-29 5,-29 5,-27 4,-27 5,-25 4,-23 4,-22 3,-18 3,-16"
           style="fill:none;stroke:#000000;stroke-width:17;stroke-linecap:round;stroke-linejoin:round;stroke-miterlimit:10;stroke-dasharray:none;stroke-opacity:1"
           id="path138" />
        <path
           d="m 2733,3413 5,-29 5,-29 5,-27 5,-27 4,-25 4,-23 4,-22 3,-18 3,-16"
           style="fill:none;stroke:#000000;stroke-width:17;stroke-linecap:round;stroke-linejoin:round;stroke-miterlimit:10;stroke-dasharray:none;stroke-opacity:1"
           id="path140" />
        <path
           d="m 8883,3197 h 6"
           style="fill:none;stroke:#000000;stroke-width:17;stroke-linecap:round;stroke-linejoin:round;stroke-miterlimit:10;stroke-dasharray:none;stroke-opacity:1"
           id="path142" />
        <g
           id="g144"
           transform="rotate(-90,6162.5,-2749)">
          <path
             d="M 216.07733,-21.7488 C 237.97296,-15.13625 249.5,-7.63537 249.5,0"
             style="fill:none;stroke:#000000;stroke-width:17;stroke-linecap:round;stroke-linejoin:round;stroke-miterlimit:10;stroke-dasharray:none;stroke-opacity:1"
             id="path146" />
        </g>
        <path
           d="m 8911,3163 h 1093"
           style="fill:none;stroke:#000000;stroke-width:17;stroke-linecap:round;stroke-linejoin:round;stroke-miterlimit:10;stroke-dasharray:none;stroke-opacity:1"
           id="path148" />
        <g
           id="g150"
           transform="rotate(90,3295.5,6709)">
          <path
             d="m -249.5,0 c 0,-7.63537 11.52704,-15.13625 33.42267,-21.7488"
             style="fill:none;stroke:#000000;stroke-width:17;stroke-linecap:round;stroke-linejoin:round;stroke-miterlimit:10;stroke-dasharray:none;stroke-opacity:1"
             id="path152" />
        </g>
        <path
           d="m 10026,3197 h 6"
           style="fill:none;stroke:#000000;stroke-width:17;stroke-linecap:round;stroke-linejoin:round;stroke-miterlimit:10;stroke-dasharray:none;stroke-opacity:1"
           id="path154" />
        <g
           id="g156"
           transform="rotate(-90,3110,303.5)">
          <path
             d="M 216.07733,-21.7488 C 237.97296,-15.13625 249.5,-7.63537 249.5,0"
             style="fill:none;stroke:#000000;stroke-width:17;stroke-linecap:round;stroke-linejoin:round;stroke-miterlimit:10;stroke-dasharray:none;stroke-opacity:1"
             id="path158" />
        </g>
        <path
           d="M 2806,3163 H 3885"
           style="fill:none;stroke:#000000;stroke-width:17;stroke-linecap:round;stroke-linejoin:round;stroke-miterlimit:10;stroke-dasharray:none;stroke-opacity:1"
           id="path160" />
        <g
           id="g162"
           transform="rotate(90,236,3649.5)">
          <path
             d="m -249.5,0 c 0,-7.63537 11.52704,-15.13625 33.42267,-21.7488"
             style="fill:none;stroke:#000000;stroke-width:17;stroke-linecap:round;stroke-linejoin:round;stroke-miterlimit:10;stroke-dasharray:none;stroke-opacity:1"
             id="path164" />
        </g>
        <path
           d="m 3907,3197 h 13"
           style="fill:none;stroke:#000000;stroke-width:17;stroke-linecap:round;stroke-linejoin:round;stroke-miterlimit:10;stroke-dasharray:none;stroke-opacity:1"
           id="path166" />
        <path
           d="m 2771,3197 h 13"
           style="fill:none;stroke:#000000;stroke-width:17;stroke-linecap:round;stroke-linejoin:round;stroke-miterlimit:10;stroke-dasharray:none;stroke-opacity:1"
           id="path168" />
        <path
           d="M 1163,3288 V 4535"
           style="fill:none;stroke:#000000;stroke-width:17;stroke-linecap:round;stroke-linejoin:round;stroke-miterlimit:10;stroke-dasharray:none;stroke-opacity:1"
           id="path170" />
        <path
           d="m 4842,12767 -499,-499"
           style="fill:none;stroke:#000000;stroke-width:17;stroke-linecap:round;stroke-linejoin:round;stroke-miterlimit:10;stroke-dasharray:none;stroke-opacity:1"
           id="path172" />
        <path
           d="m 4842,12767 h 873 l 499,-499 H 4343 V 8027"
           style="fill:none;stroke:#000000;stroke-width:17;stroke-linecap:round;stroke-linejoin:round;stroke-miterlimit:10;stroke-dasharray:none;stroke-opacity:1"
           id="path174" />
        <path
           d="m 6214,8027 v 4241"
           style="fill:none;stroke:#000000;stroke-width:17;stroke-linecap:round;stroke-linejoin:round;stroke-miterlimit:10;stroke-dasharray:none;stroke-opacity:1"
           id="path176" />
      </g>
    </g>
  </g>
</svg>
